<svg width="44" height="42" viewBox="0 0 44 42" fill="none" xmlns="http://www.w3.org/2000/svg">
<path d="M18.7169 2.37825C19.5698 -0.792749 24.4302 -0.792749 25.2831 2.37825L35.1154 38.8604H42.3077C42.7565 38.8604 43.187 39.0258 43.5043 39.3202C43.8217 39.6146 44 40.0139 44 40.4302C44 40.8465 43.8217 41.2458 43.5043 41.5402C43.187 41.8346 42.7565 42 42.3077 42H1.69231C1.24348 42 0.813035 41.8346 0.495665 41.5402C0.178296 41.2458 0 40.8465 0 40.4302C0 40.0139 0.178296 39.6146 0.495665 39.3202C0.813035 39.0258 1.24348 38.8604 1.69231 38.8604H8.88462L18.7169 2.37825Z" fill="#E29513"/>
</svg>
