<svg width="21" height="21" viewBox="0 0 21 21" fill="none" xmlns="http://www.w3.org/2000/svg">
<path d="M6.25 12.5C6.58152 12.5 6.89946 12.3683 7.13388 12.1339C7.3683 11.8995 7.5 11.5815 7.5 11.25C7.5 10.9185 7.3683 10.6005 7.13388 10.3661C6.89946 10.1317 6.58152 10 6.25 10C5.91848 10 5.60054 10.1317 5.36612 10.3661C5.1317 10.6005 5 10.9185 5 11.25C5 11.5815 5.1317 11.8995 5.36612 12.1339C5.60054 12.3683 5.91848 12.5 6.25 12.5ZM6.25 16C6.58152 16 6.89946 15.8683 7.13388 15.6339C7.3683 15.3995 7.5 15.0815 7.5 14.75C7.5 14.4185 7.3683 14.1005 7.13388 13.8661C6.89946 13.6317 6.58152 13.5 6.25 13.5C5.91848 13.5 5.60054 13.6317 5.36612 13.8661C5.1317 14.1005 5 14.4185 5 14.75C5 15.0815 5.1317 15.3995 5.36612 15.6339C5.60054 15.8683 5.91848 16 6.25 16ZM11 11.25C11 11.5815 10.8683 11.8995 10.6339 12.1339C10.3995 12.3683 10.0815 12.5 9.75 12.5C9.41848 12.5 9.10054 12.3683 8.86612 12.1339C8.6317 11.8995 8.5 11.5815 8.5 11.25C8.5 10.9185 8.6317 10.6005 8.86612 10.3661C9.10054 10.1317 9.41848 10 9.75 10C10.0815 10 10.3995 10.1317 10.6339 10.3661C10.8683 10.6005 11 10.9185 11 11.25ZM9.75 16C10.0815 16 10.3995 15.8683 10.6339 15.6339C10.8683 15.3995 11 15.0815 11 14.75C11 14.4185 10.8683 14.1005 10.6339 13.8661C10.3995 13.6317 10.0815 13.5 9.75 13.5C9.41848 13.5 9.10054 13.6317 8.86612 13.8661C8.6317 14.1005 8.5 14.4185 8.5 14.75C8.5 15.0815 8.6317 15.3995 8.86612 15.6339C9.10054 15.8683 9.41848 16 9.75 16ZM14.5 11.25C14.5 11.5815 14.3683 11.8995 14.1339 12.1339C13.8995 12.3683 13.5815 12.5 13.25 12.5C12.9185 12.5 12.6005 12.3683 12.3661 12.1339C12.1317 11.8995 12 11.5815 12 11.25C12 10.9185 12.1317 10.6005 12.3661 10.3661C12.6005 10.1317 12.9185 10 13.25 10C13.5815 10 13.8995 10.1317 14.1339 10.3661C14.3683 10.6005 14.5 10.9185 14.5 11.25Z" fill="black"/>
<path fill-rule="evenodd" clip-rule="evenodd" d="M5.08871 0.25C5.34537 0.25 5.59152 0.342962 5.77301 0.508435C5.95449 0.673908 6.05645 0.898338 6.05645 1.13235V2.01471H14.4435V1.13235C14.4435 0.898338 14.5455 0.673908 14.727 0.508435C14.9085 0.342962 15.1546 0.25 15.4113 0.25C15.668 0.25 15.9141 0.342962 16.0956 0.508435C16.2771 0.673908 16.379 0.898338 16.379 1.13235V2.02412C16.5752 2.02882 16.758 2.03745 16.9274 2.05C17.4177 2.08529 17.8771 2.16529 18.3119 2.36765C18.9797 2.67785 19.5227 3.17288 19.8629 3.78176C20.0848 4.17824 20.1726 4.59706 20.2113 5.04412C20.25 5.47353 20.25 5.99706 20.25 6.62647V15.6382C20.25 16.2676 20.25 16.7912 20.2113 17.2206C20.1726 17.6676 20.0848 18.0865 19.8629 18.4829C19.523 19.0916 18.9806 19.5867 18.3132 19.8971C17.8771 20.0994 17.4177 20.1794 16.9274 20.2147C16.4565 20.25 15.8823 20.25 15.1932 20.25H5.30806C4.61774 20.25 4.04355 20.25 3.57258 20.2147C3.08226 20.1794 2.6229 20.0994 2.18806 19.8971C1.52065 19.5875 0.977755 19.0933 0.637097 18.4853C0.415162 18.0876 0.32742 17.6688 0.28871 17.2218C0.25 16.7924 0.25 16.2688 0.25 15.6406V6.62647C0.25 5.99706 0.25 5.47353 0.28871 5.04412C0.32742 4.59706 0.415162 4.17824 0.637097 3.78176C0.977317 3.17288 1.52025 2.67785 2.18806 2.36765C2.6229 2.16529 3.08226 2.08529 3.57258 2.05C3.74204 2.03745 3.92484 2.02882 4.12097 2.02412V1.13235C4.12097 1.01648 4.146 0.901743 4.19463 0.794691C4.24327 0.687639 4.31455 0.590369 4.40441 0.508435C4.49428 0.426501 4.60096 0.361507 4.71837 0.317165C4.83578 0.272823 4.96162 0.25 5.08871 0.25ZM18.3145 8.48529H2.18548V15.6029C2.18548 16.2759 2.18548 16.7288 2.21774 17.0759C2.24742 17.4147 2.30161 17.5759 2.36097 17.6818C2.51581 17.9594 2.76226 18.1841 3.06677 18.3253C3.1829 18.3794 3.35968 18.4288 3.73 18.4559C4.11194 18.4841 4.60742 18.4853 5.34677 18.4853H15.1532C15.8913 18.4853 16.3881 18.4853 16.7687 18.4559C17.1403 18.4288 17.3171 18.3794 17.4332 18.3253C17.7372 18.1842 17.9843 17.9589 18.139 17.6818C18.1984 17.5759 18.2526 17.4147 18.2823 17.0759C18.3132 16.7288 18.3145 16.2759 18.3145 15.6029V8.48529ZM8.31452 4.66176C8.05785 4.66176 7.81171 4.75473 7.63022 4.9202C7.44873 5.08567 7.34677 5.3101 7.34677 5.54412C7.34677 5.77813 7.44873 6.00256 7.63022 6.16804C7.81171 6.33351 8.05785 6.42647 8.31452 6.42647H12.1855C12.4421 6.42647 12.6883 6.33351 12.8698 6.16804C13.0513 6.00256 13.1532 5.77813 13.1532 5.54412C13.1532 5.3101 13.0513 5.08567 12.8698 4.9202C12.6883 4.75473 12.4421 4.66176 12.1855 4.66176H8.31452Z" fill="black"/>
</svg>
