<svg width="70" height="90" viewBox="0 0 70 90" fill="none" xmlns="http://www.w3.org/2000/svg">
<path fill-rule="evenodd" clip-rule="evenodd" d="M23.1734 9.21413C23.1734 4.12689 26.3851 0 30.3441 0H62.8344C64.7353 0.00172015 66.5579 0.973251 67.9015 2.70105C69.2452 4.42885 70 6.77152 70 9.21413V80.7859C70 83.2296 69.2445 85.5733 67.8998 87.3012C66.555 89.0292 64.7311 90 62.8293 90H38.0854C38.4742 88.6114 38.6914 87.1125 38.6914 85.5552V73.7585C38.6914 73.2221 38.6746 72.6878 38.6409 72.1557C39.5229 72.359 40.4167 72.4607 41.3223 72.4607H48.2506C50.6817 72.4607 53.0313 71.3339 54.8679 69.2871C56.7044 67.2403 57.9048 64.4109 58.2487 61.3184C58.5925 58.2259 58.0566 55.0778 56.7395 52.452C55.4224 49.8263 53.4124 47.8992 51.0785 47.0245C52.7053 45.0721 53.9617 42.6659 54.7507 39.9913C55.5398 37.3167 55.8405 34.445 55.6297 31.5975C55.419 28.75 54.7023 26.0026 53.535 23.5671C52.3677 21.1316 50.7808 19.0729 48.8967 17.5496C47.0126 16.0263 44.8816 15.0791 42.6677 14.7809C40.4538 14.4828 38.2162 14.8416 36.1272 15.8299C34.0383 16.8181 32.1537 18.4093 30.6188 20.4809C29.0839 22.5525 27.9395 25.0492 27.2738 27.7787C25.9684 27.0655 24.5915 26.5916 23.1835 26.3706V9.21413H23.1734ZM32.9195 33.3655C32.9195 30.5604 33.7867 27.8702 35.3303 25.8866C36.874 23.9031 38.9676 22.7888 41.1506 22.7888C43.3337 22.7888 45.4273 23.9031 46.9709 25.8866C48.5146 27.8702 49.3818 30.5604 49.3818 33.3655C49.3818 36.1707 48.5146 38.8609 46.9709 40.8444C45.4273 42.828 43.3337 43.9423 41.1506 43.9423C38.9676 43.9423 36.874 42.828 35.3303 40.8444C33.7867 38.8609 32.9195 36.1707 32.9195 33.3655ZM33.3386 43.8774L33.3487 43.8969L40.8729 53.5652C40.9932 53.7163 41.1541 53.8023 41.3223 53.8053H48.2456C49.4174 53.8053 50.5413 54.4035 51.3699 55.4683C52.1986 56.5331 52.6641 57.9772 52.6641 59.4831C52.6641 60.9889 52.1986 62.433 51.3699 63.4978C50.5413 64.5626 49.4174 65.1608 48.2456 65.1608H41.3223C38.8126 65.1608 36.4038 63.8825 34.6263 61.5984L30.2128 55.9272L26.6275 60.5342L30.233 65.1543C32.0055 67.4384 33.0053 70.5335 33.0053 73.7585V83.9329C33.0053 85.4388 32.5398 86.8829 31.7112 87.9477C30.8825 89.0125 29.7587 89.6107 28.5868 89.6107C27.4149 89.6107 26.291 89.0125 25.4624 87.9477C24.6338 86.8829 24.1682 85.4388 24.1682 83.9329V73.7585C24.1646 73.5446 24.0978 73.3405 23.9814 73.1875L20.3203 68.4766C18.6725 70.0822 16.6618 70.9525 14.5939 70.9553H4.41855C3.24668 70.9553 2.1228 70.3571 1.29416 69.2923C0.465525 68.2275 0 66.7834 0 65.2776C0 63.7718 0.465525 62.3276 1.29416 61.2628C2.1228 60.198 3.24668 59.5999 4.41855 59.5999H14.5939C14.7621 59.5968 14.9229 59.5108 15.0433 59.3598L23.9612 47.894L21.7999 45.1233C21.6808 44.9737 21.522 44.8879 21.3555 44.8832H12.175C11.0031 44.8832 9.87926 44.285 9.05062 43.2202C8.22198 42.1555 7.75646 40.7113 7.75646 39.2055C7.75646 37.6997 8.22198 36.2555 9.05062 35.1907C9.87926 34.1259 11.0031 33.5278 12.175 33.5278H21.3606C23.8703 33.5278 26.279 34.8125 28.0515 37.0966L33.3235 43.8645L33.3386 43.8774Z" fill="#E29513"/>
</svg>
