<svg width="94" height="94" viewBox="0 0 94 94" fill="none" xmlns="http://www.w3.org/2000/svg">
<path d="M47 64.3158C21.0325 64.3158 0 73.1716 0 84.1053V94H94V84.1053C94 73.1716 72.9675 64.3158 47 64.3158ZM23.5 34.6316C23.5 39.8801 25.9759 44.9136 30.383 48.6249C34.7901 52.3361 40.7674 54.4211 47 54.4211C53.2326 54.4211 59.2099 52.3361 63.617 48.6249C68.0241 44.9136 70.5 39.8801 70.5 34.6316M44.0625 0C42.3 0 41.125 1.03895 41.125 2.47368V17.3158H35.25V4.94737C35.25 4.94737 22.0312 9.20211 22.0312 23.5C22.0312 23.5 17.625 24.1926 17.625 29.6842H76.375C76.0812 24.1926 71.9688 23.5 71.9688 23.5C71.9688 9.20211 58.75 4.94737 58.75 4.94737V17.3158H52.875V2.47368C52.875 1.03895 51.7588 0 49.9375 0H44.0625Z" fill="#F59E0B"/>
</svg>
