<svg width="94" height="94" viewBox="0 0 94 94" fill="none" xmlns="http://www.w3.org/2000/svg">
<path d="M20.1429 23.5C20.1429 29.7326 22.9724 35.7099 28.0091 40.117C33.0458 44.5241 39.877 47 47 47C54.123 47 60.9542 44.5241 65.9909 40.117C71.0276 35.7099 73.8571 29.7326 73.8571 23.5C73.8571 17.2674 71.0276 11.2901 65.9909 6.88299C60.9542 2.47589 54.123 0 47 0C39.877 0 33.0458 2.47589 28.0091 6.88299C22.9724 11.2901 20.1429 17.2674 20.1429 23.5ZM39.971 60.2555L43.8737 65.9469L36.8866 88.6941L29.333 61.7242C28.9134 60.2371 27.2768 59.2641 25.5772 59.6496C10.8897 62.8625 0 74.5023 0 88.3637C0 91.4848 2.89554 94 6.44152 94H87.5585C91.1254 94 94 91.4664 94 88.3637C94 74.5023 83.1103 62.8625 68.4228 59.6496C66.7232 59.2824 65.0866 60.2555 64.667 61.7242L57.1134 88.6941L50.1263 65.9469L54.029 60.2555C55.3719 58.291 53.7563 55.8125 51.1545 55.8125H42.8665C40.2647 55.8125 38.6491 58.3094 39.992 60.2555H39.971Z" fill="#1E40AF"/>
</svg>
