<svg width="140" height="140" viewBox="0 0 140 140" fill="none" xmlns="http://www.w3.org/2000/svg">
<path d="M70 78.75C91.7383 78.75 109.375 61.1133 109.375 39.375C109.375 17.6367 91.7383 0 70 0C48.2617 0 30.625 17.6367 30.625 39.375C30.625 61.1133 48.2617 78.75 70 78.75ZM105 87.5H89.9336C83.8633 90.2891 77.1094 91.875 70 91.875C62.8906 91.875 56.1641 90.2891 50.0664 87.5H35C15.668 87.5 0 103.168 0 122.5V126.875C0 134.121 5.87891 140 13.125 140H126.875C134.121 140 140 134.121 140 126.875V122.5C140 103.168 124.332 87.5 105 87.5Z" fill="#736E6E"/>
<path fill-rule="evenodd" clip-rule="evenodd" d="M106.624 62.3864C112.46 51.4614 115.378 46 120 46C124.622 46 127.54 51.4614 133.376 62.3864L134.104 63.746C138.954 72.8238 141.379 77.3627 139.188 80.6813C136.996 84 131.572 84 120.728 84H119.272C108.428 84 103.004 84 100.812 80.6813C98.6205 77.3627 101.046 72.8238 105.896 63.746L106.624 62.3864ZM120 54.9722C120.398 54.9722 120.779 55.139 121.061 55.436C121.342 55.7329 121.5 56.1356 121.5 56.5556V67.1111C121.5 67.531 121.342 67.9338 121.061 68.2307C120.779 68.5276 120.398 68.6944 120 68.6944C119.602 68.6944 119.221 68.5276 118.939 68.2307C118.658 67.9338 118.5 67.531 118.5 67.1111V56.5556C118.5 56.1356 118.658 55.7329 118.939 55.436C119.221 55.139 119.602 54.9722 120 54.9722ZM120 75.5556C120.53 75.5556 121.039 75.3331 121.414 74.9372C121.789 74.5413 122 74.0043 122 73.4444C122 72.8845 121.789 72.3476 121.414 71.9517C121.039 71.5558 120.53 71.3333 120 71.3333C119.47 71.3333 118.961 71.5558 118.586 71.9517C118.211 72.3476 118 72.8845 118 73.4444C118 74.0043 118.211 74.5413 118.586 74.9372C118.961 75.3331 119.47 75.5556 120 75.5556Z" fill="#DACD46"/>
</svg>
