<svg width="140" height="140" viewBox="0 0 140 140" fill="none" xmlns="http://www.w3.org/2000/svg">
<path d="M86.6781 3.27578C81.5875 1.22227 75.9719 0 70 0C53.2219 0 38.9062 9.05898 32.9656 21.875H58.3375L86.6781 3.27578ZM107.034 21.875C104.566 16.5512 100.575 11.9766 95.6312 8.33437L74.9969 21.875H107.034ZM70 70C92.0906 70 110 54.3293 110 35C110 33.5016 109.703 32.0742 109.497 30.625H30.5031C30.2938 32.0742 30 33.5016 30 35C30 54.3293 47.9094 70 70 70ZM25 81.9492V140H65.0812L34.3156 79.4281C31.108 79.9453 27.9812 80.7915 25 81.9492ZM0 126.875C0 134.124 6.71562 140 15 140V87.5656C5.9 94.3059 0 104.251 0 115.5V126.875ZM80 113.75H62.6937L76.0281 140H80C88.2719 140 95 134.113 95 126.875C95 119.637 88.2719 113.75 80 113.75ZM98 78.75H92.7781C85.8281 81.5336 78.1281 83.125 70 83.125C61.8719 83.125 54.1719 81.5336 47.2219 78.75H44.9188L58.2531 105H80C93.7844 105 105 114.814 105 126.875C105 131.819 103.044 136.333 99.8719 140H125C133.284 140 140 134.124 140 126.875V115.5C140 95.2027 121.197 78.75 98 78.75Z" fill="#CF4B4B"/>
</svg>
