<svg width="70" height="100" viewBox="0 0 70 100" fill="none" xmlns="http://www.w3.org/2000/svg">
<path d="M29.8641 54.3884C20.1001 53.7869 0 61.9681 0 78.3909V84.4065C0 87.7151 1.60944 90.4222 3.57653 90.4222H34.1201C25.2861 73.819 29.721 54.99 29.8641 54.3884ZM62.339 78.5112C64.02 73.6987 64.8426 67.8635 64.0557 61.5471C62.8397 51.6814 57.9041 43.8009 51.967 42.5376C42.5608 40.4923 34.6208 53.7869 35.8726 69.608C36.6595 79.594 41.309 87.8956 47.1745 89.9409C50.9298 91.2644 54.3991 89.8808 57.2603 87.0534L63.9127 98.2425C64.5814 99.3673 65.4884 99.9992 66.4341 99.9992C67.3799 99.9992 68.2868 99.3673 68.9556 98.2425C69.6243 97.1177 70 95.5922 70 94.0015C70 92.4108 69.6243 90.8852 68.9556 89.7605L62.339 78.5112ZM50.0715 78.3909C46.1373 78.3909 42.9184 72.9768 42.9184 66.3596C42.9184 59.7424 46.1373 54.3283 50.0715 54.3283C54.0057 54.3283 57.2245 59.7424 57.2245 66.3596C57.2245 72.9768 54.0057 78.3909 50.0715 78.3909Z" fill="#FFFF00"/>
<path d="M32.1128 48.1252C40.0138 48.1252 46.4189 37.352 46.4189 24.0626C46.4189 10.7732 40.0138 0 32.1128 0C24.2117 0 17.8066 10.7732 17.8066 24.0626C17.8066 37.352 24.2117 48.1252 32.1128 48.1252Z" fill="#FFFF00"/>
</svg>
