<svg width="120" height="185" viewBox="0 0 120 185" fill="none" xmlns="http://www.w3.org/2000/svg">
<path d="M83.7217 100.186L67.2356 73.2465V10.998C67.2356 8.08113 66.4845 5.28375 65.1476 3.22123C63.8106 1.15871 61.9973 0 60.1065 0C58.2158 0 56.4025 1.15871 55.0655 3.22123C53.7285 5.28375 52.9774 8.08113 52.9774 10.998V73.2465L36.4914 100.192C36.1108 100.634 35.7917 101.19 35.5529 101.827C35.314 102.463 35.1604 103.167 35.101 103.897C35.0416 104.626 35.0777 105.367 35.2071 106.075C35.3366 106.783 35.5567 107.443 35.8545 108.017C36.1523 108.592 36.5218 109.068 36.941 109.418C37.3602 109.768 37.8207 109.985 38.2952 110.055C38.7697 110.126 39.2485 110.049 39.7034 109.829C40.1583 109.609 40.58 109.251 40.9435 108.775C40.9471 108.775 52.9774 87.9838 60.1065 87.9838C67.2356 87.9838 79.266 108.775 79.266 108.775C80.0079 109.623 80.9338 109.994 81.8492 109.81C82.7646 109.626 83.5982 108.903 84.175 107.791C84.7518 106.679 85.0268 105.265 84.9422 103.847C84.8577 102.429 84.4202 101.117 83.7217 100.186Z" fill="#F4ABBA"/>
<path d="M84.2777 102.419C83.9852 102.983 83.6235 103.453 83.2133 103.802C82.8031 104.15 82.3525 104.37 81.887 104.45C81.4216 104.53 80.9506 104.467 80.5008 104.266C80.0511 104.065 79.6315 103.729 79.2659 103.277C79.2659 103.277 67.2356 82.4854 60.1065 82.4854C52.9774 82.4854 40.9471 103.277 40.9471 103.277C40.3147 104.057 39.5289 104.482 38.7192 104.481C38.1847 104.482 37.6569 104.296 37.175 103.939C36.6931 103.583 36.2694 103.063 35.9353 102.419C35.8177 102.188 35.7785 101.919 35.6858 101.671C35.3571 102.501 35.1779 103.45 35.1666 104.422C35.1553 105.394 35.3123 106.353 35.6215 107.199C35.9307 108.046 36.3808 108.751 36.9254 109.239C37.4699 109.728 38.0892 109.984 38.7192 109.98C39.4999 109.98 40.2876 109.59 40.9435 108.776C40.9435 108.776 52.9774 87.9843 60.1065 87.9843C67.2356 87.9843 79.2659 108.776 79.2659 108.776C79.6315 109.228 80.0511 109.564 80.5008 109.765C80.9506 109.966 81.4216 110.029 81.887 109.949C82.3525 109.869 82.8031 109.649 83.2133 109.301C83.6235 108.952 83.9852 108.482 84.2777 107.918C84.7261 107.04 84.9902 105.971 85.0347 104.855C85.0793 103.739 84.9023 102.628 84.5272 101.671C84.4345 101.919 84.3953 102.194 84.2777 102.419Z" fill="#EA596E"/>
<path d="M43.5674 44.1185C40.6766 29.5132 29.7334 25.2735 14.7694 55.8809C8.20355 69.3094 2.09748 92.1412 2.29709 114.923C2.48958 136.897 -2.80378 152.251 2.0654 173.158C4.32175 182.847 23.8769 189.165 38.2741 175.445C44.3017 169.704 48.2263 163.034 47.1676 153.559C45.4317 138.019 45.4032 126.928 46.7434 106.521C48.4366 80.7088 47.0001 61.4733 43.5674 44.1185Z" fill="#DD2E44"/>
<path d="M43.5674 44.1185C40.6766 29.5132 29.7334 25.2735 14.7694 55.8809C8.20355 69.3094 2.09748 92.1412 2.29709 114.923C2.48958 136.897 -2.80378 152.251 2.0654 173.158C7.57262 159.762 23.4527 174.137 37.8534 160.417C43.8811 154.676 45.9806 140.84 45.8452 134.61C45.6705 126.559 45.9913 118.019 46.747 106.516C48.4366 80.7088 47.0001 61.4733 43.5674 44.1185Z" fill="#EA596E"/>
<path d="M74.3651 44.4047C74.5077 29.134 85.0695 27.1324 100.953 49.6727C109.804 62.2324 115.368 86.8294 118.316 113.373C121.282 140.076 119.695 169.364 117.892 176.749C115.703 185.701 98.7466 189.363 86.9765 177.403C79.3911 169.699 74.661 156.161 76.1759 140.164C80.2003 97.6954 73.8483 100.307 74.3651 44.4047Z" fill="#DD2E44"/>
<path d="M74.3657 44.4051C74.5083 29.1344 85.07 27.1328 100.954 49.6731C109.804 62.2328 115.369 86.8298 118.317 113.373C121.282 140.076 119.696 169.364 117.892 176.749C116.834 159.763 104.764 168.908 91.8462 160.087C87.9644 157.437 86.4459 154.995 86.7632 141.792C87.1874 124.151 77.5025 129.705 77.5025 117.927C77.506 96.0956 73.9593 88.2485 74.3657 44.4051ZM66.3455 13.8362C66.1116 13.8356 65.8804 13.7594 65.6667 13.6126C65.4531 13.4659 65.2617 13.2517 65.105 12.9839C65.0622 12.9124 63.5223 10.5039 60.1075 10.5039C56.6927 10.5039 55.1563 12.9069 55.0922 13.0114C54.7894 13.5014 54.3741 13.7886 53.9355 13.8113C53.4969 13.8339 53.07 13.5901 52.7467 13.1324C52.4254 12.6784 52.2332 12.0472 52.2119 11.3759C52.1905 10.7046 52.3417 10.0474 52.6326 9.54703C52.8822 9.11811 55.2098 5.3623 60.1075 5.3623C65.0052 5.3623 67.3328 9.11811 67.5859 9.54153C67.8016 9.91136 67.9431 10.3697 67.9935 10.8611C68.0438 11.3524 68.0007 11.8558 67.8695 12.3102C67.7382 12.7645 67.5244 13.1505 67.254 13.4214C66.9835 13.6922 66.6679 13.8363 66.3455 13.8362ZM66.3455 30.3332C66.1116 30.3326 65.8804 30.2564 65.6667 30.1096C65.4531 29.9628 65.2617 29.7486 65.105 29.4809C65.0622 29.4094 63.5223 27.0008 60.1075 27.0008C56.6927 27.0008 55.1563 29.4039 55.0922 29.5084C54.4613 30.5257 53.4133 30.5862 52.7467 29.6293C52.0801 28.6725 52.0231 27.0888 52.6326 26.044C52.8822 25.6151 55.2098 21.8593 60.1075 21.8593C65.0052 21.8593 67.3328 25.6151 67.5859 26.0385C67.8016 26.4083 67.9431 26.8667 67.9935 27.358C68.0438 27.8494 68.0007 28.3527 67.8695 28.8071C67.7382 29.2615 67.5244 29.6475 67.254 29.9183C66.9835 30.1892 66.6679 30.3333 66.3455 30.3332ZM66.3455 46.8302C66.1116 46.8295 65.8804 46.7534 65.6667 46.6066C65.4531 46.4598 65.2617 46.2456 65.105 45.9778C65.0622 45.9063 63.5223 43.4978 60.1075 43.4978C56.6927 43.4978 55.1563 45.9008 55.0922 46.0053C54.7894 46.4954 54.3741 46.7826 53.9355 46.8052C53.4969 46.8278 53.07 46.584 52.7467 46.1263C52.4254 45.6723 52.2332 45.0411 52.2119 44.3698C52.1905 43.6985 52.3417 43.0413 52.6326 42.5409C52.8822 42.112 55.2098 38.3562 60.1075 38.3562C65.0052 38.3562 67.3328 42.112 67.5859 42.5354C67.8016 42.9053 67.9431 43.3636 67.9935 43.855C68.0438 44.3463 68.0007 44.8497 67.8695 45.3041C67.7382 45.7585 67.5244 46.1444 67.254 46.4153C66.9835 46.6861 66.6679 46.8302 66.3455 46.8302ZM66.3455 63.3271C66.1116 63.3265 65.8804 63.2503 65.6667 63.1035C65.4531 62.9567 65.2617 62.7425 65.105 62.4748C65.0622 62.4033 63.5223 59.9947 60.1075 59.9947C56.6927 59.9947 55.1563 62.3978 55.0922 62.5023C54.4613 63.5196 53.4133 63.5801 52.7467 62.6232C52.0801 61.6664 52.0231 60.0827 52.6326 59.0379C52.8822 58.609 55.2098 54.8532 60.1075 54.8532C65.0052 54.8532 67.3328 58.609 67.5859 59.0324C67.8016 59.4022 67.9431 59.8606 67.9935 60.3519C68.0438 60.8433 68.0007 61.3466 67.8695 61.801C67.7382 62.2554 67.5244 62.6414 67.254 62.9122C66.9835 63.1831 66.6679 63.3272 66.3455 63.3271Z" fill="#EA596E"/>
<path d="M33.6428 61.9975C33.6428 61.4415 33.9328 60.9941 34.2932 60.9941H36.4613C36.8217 60.9941 37.1117 61.4415 37.1117 61.9975C37.1117 62.5536 36.8217 63.0009 36.4613 63.0009H36.0276V64.4057C36.8596 64.5813 37.6212 65.0871 38.258 65.8313L38.903 64.8405L38.5968 64.3639C38.342 63.9709 38.342 63.3354 38.5968 62.9466C38.8515 62.5578 39.2635 62.5536 39.5155 62.9466L41.0494 65.3129C41.3041 65.7059 41.3041 66.3414 41.0494 66.7302C40.7946 67.119 40.3827 67.1232 40.1307 66.7302L39.8217 66.2578L39.1767 67.2528C39.6618 68.2353 39.987 69.4142 40.1009 70.6936H41.0115V70.0246C41.0115 69.4686 41.3014 69.0213 41.6619 69.0213C42.0223 69.0213 42.3123 69.4686 42.3123 70.0246V73.3693C42.3123 73.9253 42.0223 74.3727 41.6619 74.3727C41.3014 74.3727 41.0115 73.9253 41.0115 73.3693V72.7003H40.1009C39.987 73.9838 39.6591 75.1587 39.1767 76.1411L39.8217 77.1362L40.128 76.6637C40.3827 76.2707 40.7946 76.2707 41.0467 76.6637C41.2987 77.0567 41.3014 77.6922 41.0467 78.081L39.5128 80.4473C39.258 80.8403 38.8461 80.8403 38.5941 80.4473C38.342 80.0544 38.3393 79.4189 38.5941 79.0301L38.903 78.5535L38.258 77.5584C37.6212 78.3068 36.8569 78.8085 36.0276 78.9841V80.3888H36.4613C36.8217 80.3888 37.1117 80.8362 37.1117 81.3922C37.1117 81.9483 36.8217 82.3956 36.4613 82.3956H34.2932C33.9328 82.3956 33.6428 81.9483 33.6428 81.3922C33.6428 80.8362 33.9328 80.3888 34.2932 80.3888H34.7268V78.9841C33.8948 78.8085 33.1333 78.3026 32.4964 77.5584L31.8514 78.5535L32.1577 79.0259C32.4124 79.4189 32.4124 80.0544 32.1577 80.4432C31.9029 80.832 31.491 80.8362 31.239 80.4432L29.7051 78.081C29.4503 77.688 29.4503 77.0525 29.7051 76.6637C29.9598 76.2749 30.3717 76.2707 30.6238 76.6637L30.9327 77.1362L31.5777 76.1411C31.0926 75.1587 30.7647 73.9838 30.6509 72.7003H29.7403V73.3693C29.7403 73.9253 29.4503 74.3727 29.0899 74.3727C28.7294 74.3727 28.4395 73.9253 28.4395 73.3693V70.0246C28.4395 69.4686 28.7294 69.0213 29.0899 69.0213C29.4503 69.0213 29.7403 69.4686 29.7403 70.0246V70.6936H30.6509C30.7647 69.4101 31.0926 68.2353 31.575 67.2528L30.9327 66.2578L30.6238 66.7302C30.369 67.1232 29.9571 67.1232 29.7051 66.7302C29.453 66.3372 29.4503 65.7017 29.7051 65.3129L31.239 62.9466C31.4937 62.5536 31.9056 62.5536 32.1577 62.9466C32.4097 63.3396 32.4124 63.975 32.1577 64.3639L31.8514 64.8405L32.4964 65.8355C33.1333 65.0871 33.8975 64.5854 34.7268 64.4098V63.0009H34.2932C33.9328 63.0009 33.6428 62.5536 33.6428 61.9975ZM34.9436 70.3591C34.9436 69.8269 34.8066 69.3164 34.5626 68.9401C34.3187 68.5638 33.9878 68.3523 33.6428 68.3523C33.2978 68.3523 32.9669 68.5638 32.723 68.9401C32.479 69.3164 32.3419 69.8269 32.3419 70.3591C32.3419 70.8913 32.479 71.4018 32.723 71.7781C32.9669 72.1545 33.2978 72.3659 33.6428 72.3659C33.9878 72.3659 34.3187 72.1545 34.5626 71.7781C34.8066 71.4018 34.9436 70.8913 34.9436 70.3591ZM36.6781 74.7071C36.8506 74.7071 37.016 74.6014 37.138 74.4132C37.2599 74.2251 37.3285 73.9699 37.3285 73.7037C37.3285 73.4376 37.2599 73.1824 37.138 72.9942C37.016 72.8061 36.8506 72.7003 36.6781 72.7003C36.5056 72.7003 36.3401 72.8061 36.2181 72.9942C36.0962 73.1824 36.0276 73.4376 36.0276 73.7037C36.0276 73.9699 36.0962 74.2251 36.2181 74.4132C36.3401 74.6014 36.5056 74.7071 36.6781 74.7071Z" fill="#2B671B"/>
<path d="M105.088 75.9087C105.088 75.3526 105.378 74.9053 105.739 74.9053H107.907C108.267 74.9053 108.557 75.3526 108.557 75.9087C108.557 76.4647 108.267 76.9121 107.907 76.9121H107.473V78.3168C108.305 78.4924 109.066 78.9983 109.703 79.7424L110.348 78.7516L110.042 78.275C109.787 77.882 109.787 77.2465 110.042 76.8577C110.297 76.4689 110.709 76.4647 110.961 76.8577L112.495 79.224C112.749 79.617 112.749 80.2525 112.495 80.6413C112.24 81.0301 111.828 81.0343 111.576 80.6413L111.267 80.1689L110.622 81.1639C111.107 82.1464 111.432 83.3254 111.546 84.6047H112.457V83.9358C112.457 83.3797 112.747 82.9324 113.107 82.9324C113.468 82.9324 113.758 83.3797 113.758 83.9358V87.2804C113.758 87.8365 113.468 88.2838 113.107 88.2838C112.747 88.2838 112.457 87.8365 112.457 87.2804V86.6115H111.546C111.432 87.895 111.104 89.0698 110.622 90.0523L111.267 91.0473L111.573 90.5749C111.828 90.1819 112.24 90.1819 112.492 90.5749C112.744 90.9679 112.747 91.6033 112.492 91.9922L110.958 94.3585C110.703 94.7515 110.291 94.7515 110.039 94.3585C109.787 93.9655 109.785 93.33 110.039 92.9412L110.348 92.4646L109.703 91.4696C109.066 92.2179 108.302 92.7196 107.473 92.8952V94.2999H107.907C108.267 94.2999 108.557 94.7473 108.557 95.3033C108.557 95.8594 108.267 96.3067 107.907 96.3067H105.739C105.378 96.3067 105.088 95.8594 105.088 95.3033C105.088 94.7473 105.378 94.2999 105.739 94.2999H106.172V92.8952C105.34 92.7196 104.579 92.2137 103.942 91.4696L103.297 92.4646L103.603 92.937C103.858 93.33 103.858 93.9655 103.603 94.3543C103.348 94.7431 102.936 94.7473 102.684 94.3543L101.15 91.9922C100.896 91.5992 100.896 90.9637 101.15 90.5749C101.405 90.1861 101.817 90.1819 102.069 90.5749L102.378 91.0473L103.023 90.0523C102.538 89.0698 102.21 87.895 102.096 86.6115H101.186V87.2804C101.186 87.8365 100.896 88.2838 100.535 88.2838C100.175 88.2838 99.8848 87.8365 99.8848 87.2804V83.9358C99.8848 83.3797 100.175 82.9324 100.535 82.9324C100.896 82.9324 101.186 83.3797 101.186 83.9358V84.6047H102.096C102.21 83.3212 102.538 82.1464 103.02 81.1639L102.378 80.1689L102.069 80.6413C101.814 81.0343 101.402 81.0343 101.15 80.6413C100.898 80.2483 100.896 79.6128 101.15 79.224L102.684 76.8577C102.939 76.4647 103.351 76.4647 103.603 76.8577C103.855 77.2507 103.858 77.8862 103.603 78.275L103.297 78.7516L103.942 79.7466C104.579 78.9983 105.343 78.4966 106.172 78.321V76.9121H105.739C105.378 76.9121 105.088 76.4647 105.088 75.9087ZM106.389 84.2702C106.389 83.738 106.252 83.2276 106.008 82.8512C105.764 82.4749 105.433 82.2635 105.088 82.2635C104.743 82.2635 104.412 82.4749 104.168 82.8512C103.924 83.2276 103.787 83.738 103.787 84.2702C103.787 84.8025 103.924 85.3129 104.168 85.6892C104.412 86.0656 104.743 86.277 105.088 86.277C105.433 86.277 105.764 86.0656 106.008 85.6892C106.252 85.3129 106.389 84.8025 106.389 84.2702ZM108.123 88.6183C108.296 88.6183 108.461 88.5125 108.583 88.3244C108.705 88.1362 108.774 87.881 108.774 87.6149C108.774 87.3488 108.705 87.0935 108.583 86.9054C108.461 86.7172 108.296 86.6115 108.123 86.6115C107.951 86.6115 107.785 86.7172 107.663 86.9054C107.541 87.0935 107.473 87.3488 107.473 87.6149C107.473 87.881 107.541 88.1362 107.663 88.3244C107.785 88.5125 107.951 88.6183 108.123 88.6183Z" fill="#2B671B"/>
<path d="M82.8908 87.6792C82.8908 87.1231 83.1808 86.6758 83.5412 86.6758H85.7093C86.0697 86.6758 86.3597 87.1231 86.3597 87.6792C86.3597 88.2352 86.0697 88.6826 85.7093 88.6826H85.2757V90.0873C86.1077 90.2629 86.8692 90.7688 87.5061 91.513L88.1511 90.5221L87.8448 90.0455C87.5901 89.6525 87.5901 89.017 87.8448 88.6282C88.0996 88.2394 88.5115 88.2352 88.7635 88.6282L90.2974 90.9945C90.5522 91.3875 90.5522 92.023 90.2974 92.4118C90.0427 92.8006 89.6308 92.8048 89.3787 92.4118L89.0698 91.9394L88.4248 92.9344C88.9099 93.9169 89.2351 95.0959 89.3489 96.3752H90.2595V95.7063C90.2595 95.1502 90.5495 94.7029 90.9099 94.7029C91.2704 94.7029 91.5603 95.1502 91.5603 95.7063V99.0509C91.5603 99.607 91.2704 100.054 90.9099 100.054C90.5495 100.054 90.2595 99.607 90.2595 99.0509V98.382H89.3489C89.2351 99.6655 88.9072 100.84 88.4248 101.823L89.0698 102.818L89.376 102.345C89.6308 101.952 90.0427 101.952 90.2947 102.345C90.5468 102.738 90.5495 103.374 90.2947 103.763L88.7608 106.129C88.5061 106.522 88.0942 106.522 87.8421 106.129C87.5901 105.736 87.5874 105.101 87.8421 104.712L88.1511 104.235L87.5061 103.24C86.8692 103.988 86.105 104.49 85.2757 104.666V106.07H85.7093C86.0697 106.07 86.3597 106.518 86.3597 107.074C86.3597 107.63 86.0697 108.077 85.7093 108.077H83.5412C83.1808 108.077 82.8908 107.63 82.8908 107.074C82.8908 106.518 83.1808 106.07 83.5412 106.07H83.9749V104.666C83.1429 104.49 82.3813 103.984 81.7445 103.24L81.0995 104.235L81.4057 104.708C81.6605 105.101 81.6605 105.736 81.4057 106.125C81.151 106.514 80.739 106.518 80.487 106.125L78.9531 103.763C78.6984 103.37 78.6984 102.734 78.9531 102.345C79.2078 101.957 79.6198 101.952 79.8718 102.345L80.1808 102.818L80.8258 101.823C80.3407 100.84 80.0127 99.6655 79.8989 98.382H78.9883V99.0509C78.9883 99.607 78.6984 100.054 78.3379 100.054C77.9775 100.054 77.6875 99.607 77.6875 99.0509V95.7063C77.6875 95.1502 77.9775 94.7029 78.3379 94.7029C78.6984 94.7029 78.9883 95.1502 78.9883 95.7063V96.3752H79.8989C80.0127 95.0917 80.3407 93.9169 80.823 92.9344L80.1808 91.9394L79.8718 92.4118C79.6171 92.8048 79.2051 92.8048 78.9531 92.4118C78.7011 92.0188 78.6984 91.3833 78.9531 90.9945L80.487 88.6282C80.7417 88.2352 81.1537 88.2352 81.4057 88.6282C81.6577 89.0212 81.6605 89.6567 81.4057 90.0455L81.0995 90.5221L81.7445 91.5171C82.3813 90.7688 83.1456 90.2671 83.9749 90.0915V88.6826H83.5412C83.1808 88.6826 82.8908 88.2352 82.8908 87.6792ZM84.1917 96.0407C84.1917 95.5085 84.0546 94.9981 83.8107 94.6217C83.5667 94.2454 83.2358 94.034 82.8908 94.034C82.5458 94.034 82.215 94.2454 81.971 94.6217C81.727 94.9981 81.59 95.5085 81.59 96.0407C81.59 96.573 81.727 97.0834 81.971 97.4598C82.215 97.8361 82.5458 98.0475 82.8908 98.0475C83.2358 98.0475 83.5667 97.8361 83.8107 97.4598C84.0546 97.0834 84.1917 96.573 84.1917 96.0407ZM85.9261 100.389C86.0986 100.389 86.264 100.283 86.386 100.095C86.508 99.9067 86.5765 99.6515 86.5765 99.3854C86.5765 99.1193 86.508 98.864 86.386 98.6759C86.264 98.4877 86.0986 98.382 85.9261 98.382C85.7536 98.382 85.5882 98.4877 85.4662 98.6759C85.3442 98.864 85.2757 99.1193 85.2757 99.3854C85.2757 99.6515 85.3442 99.9067 85.4662 100.095C85.5882 100.283 85.7536 100.389 85.9261 100.389Z" fill="#2B671B"/>
<path d="M111.33 133.693C111.33 133.137 111.62 132.689 111.981 132.689H114.149C114.509 132.689 114.799 133.137 114.799 133.693C114.799 134.249 114.509 134.696 114.149 134.696H113.715V136.101C114.547 136.277 115.309 136.782 115.946 137.527L116.591 136.536L116.284 136.059C116.03 135.666 116.03 135.031 116.284 134.642C116.539 134.253 116.951 134.249 117.203 134.642L118.737 137.008C118.992 137.401 118.992 138.037 118.737 138.425C118.482 138.814 118.07 138.818 117.818 138.425L117.509 137.953L116.864 138.948C117.349 139.931 117.675 141.11 117.788 142.389H118.699V141.72C118.699 141.164 118.989 140.717 119.349 140.717C119.71 140.717 120 141.164 120 141.72V145.065C120 145.621 119.71 146.068 119.349 146.068C118.989 146.068 118.699 145.621 118.699 145.065V144.396H117.788C117.675 145.679 117.347 146.854 116.864 147.836L117.509 148.831L117.815 148.359C118.07 147.966 118.482 147.966 118.734 148.359C118.986 148.752 118.989 149.388 118.734 149.776L117.2 152.143C116.946 152.536 116.534 152.536 116.282 152.143C116.03 151.75 116.027 151.114 116.282 150.725L116.591 150.249L115.946 149.254C115.309 150.002 114.544 150.504 113.715 150.679V152.084H114.149C114.509 152.084 114.799 152.531 114.799 153.088C114.799 153.644 114.509 154.091 114.149 154.091H111.981C111.62 154.091 111.33 153.644 111.33 153.088C111.33 152.531 111.62 152.084 111.981 152.084H112.414V150.679C111.582 150.504 110.821 149.998 110.184 149.254L109.539 150.249L109.845 150.721C110.1 151.114 110.1 151.75 109.845 152.138C109.59 152.527 109.178 152.531 108.926 152.138L107.393 149.776C107.138 149.383 107.138 148.748 107.393 148.359C107.647 147.97 108.059 147.966 108.311 148.359L108.62 148.831L109.265 147.836C108.78 146.854 108.452 145.679 108.338 144.396H107.428V145.065C107.428 145.621 107.138 146.068 106.777 146.068C106.417 146.068 106.127 145.621 106.127 145.065V141.72C106.127 141.164 106.417 140.717 106.777 140.717C107.138 140.717 107.428 141.164 107.428 141.72V142.389H108.338C108.452 141.105 108.78 139.931 109.263 138.948L108.62 137.953L108.311 138.425C108.057 138.818 107.645 138.818 107.393 138.425C107.141 138.033 107.138 137.397 107.393 137.008L108.926 134.642C109.181 134.249 109.593 134.249 109.845 134.642C110.097 135.035 110.1 135.67 109.845 136.059L109.539 136.536L110.184 137.531C110.821 136.782 111.585 136.281 112.414 136.105V134.696H111.981C111.62 134.696 111.33 134.249 111.33 133.693ZM112.631 142.054C112.631 141.522 112.494 141.012 112.25 140.635C112.006 140.259 111.675 140.048 111.33 140.048C110.985 140.048 110.654 140.259 110.41 140.635C110.167 141.012 110.029 141.522 110.029 142.054C110.029 142.587 110.167 143.097 110.41 143.473C110.654 143.85 110.985 144.061 111.33 144.061C111.675 144.061 112.006 143.85 112.25 143.473C112.494 143.097 112.631 142.587 112.631 142.054ZM114.366 146.402C114.538 146.402 114.703 146.297 114.825 146.109C114.947 145.92 115.016 145.665 115.016 145.399C115.016 145.133 114.947 144.878 114.825 144.69C114.703 144.501 114.538 144.396 114.366 144.396C114.193 144.396 114.028 144.501 113.906 144.69C113.784 144.878 113.715 145.133 113.715 145.399C113.715 145.665 113.784 145.92 113.906 146.109C114.028 146.297 114.193 146.402 114.366 146.402Z" fill="#2B671B"/>
<path d="M14.9143 91.9594C14.9143 91.4034 15.2042 90.9561 15.5647 90.9561H17.7327C18.0932 90.9561 18.3832 91.4034 18.3832 91.9594C18.3832 92.5155 18.0932 92.9628 17.7327 92.9628H17.2991V94.3676C18.1311 94.5432 18.8926 95.049 19.5295 95.7932L20.1745 94.8024L19.8683 94.3258C19.6135 93.9328 19.6135 93.2973 19.8683 92.9085C20.123 92.5197 20.5349 92.5155 20.787 92.9085L22.3209 95.2748C22.5756 95.6678 22.5756 96.3033 22.3209 96.6921C22.0661 97.0809 21.6542 97.0851 21.4022 96.6921L21.0932 96.2197L20.4482 97.2147C20.9333 98.1972 21.2585 99.3762 21.3724 100.655H22.2829V99.9866C22.2829 99.4305 22.5729 98.9832 22.9334 98.9832C23.2938 98.9832 23.5838 99.4305 23.5838 99.9866V103.331C23.5838 103.887 23.2938 104.335 22.9334 104.335C22.5729 104.335 22.2829 103.887 22.2829 103.331V102.662H21.3724C21.2585 103.946 20.9306 105.121 20.4482 106.103L21.0932 107.098L21.3995 106.626C21.6542 106.233 22.0661 106.233 22.3182 106.626C22.5702 107.019 22.5729 107.654 22.3182 108.043L20.7843 110.409C20.5295 110.802 20.1176 110.802 19.8656 110.409C19.6135 110.016 19.6108 109.381 19.8656 108.992L20.1745 108.515L19.5295 107.52C18.8926 108.269 18.1284 108.77 17.2991 108.946V110.351H17.7327C18.0932 110.351 18.3832 110.798 18.3832 111.354C18.3832 111.91 18.0932 112.358 17.7327 112.358H15.5647C15.2042 112.358 14.9143 111.91 14.9143 111.354C14.9143 110.798 15.2042 110.351 15.5647 110.351H15.9983V108.946C15.1663 108.77 14.4048 108.265 13.7679 107.52L13.1229 108.515L13.4291 108.988C13.6839 109.381 13.6839 110.016 13.4291 110.405C13.1744 110.794 12.7625 110.798 12.5104 110.405L10.9765 108.043C10.7218 107.65 10.7218 107.014 10.9765 106.626C11.2313 106.237 11.6432 106.233 11.8953 106.626L12.2042 107.098L12.8492 106.103C12.3641 105.121 12.0362 103.946 11.9224 102.662H11.0118V103.331C11.0118 103.887 10.7218 104.335 10.3614 104.335C10.0009 104.335 9.71094 103.887 9.71094 103.331V99.9866C9.71094 99.4305 10.0009 98.9832 10.3614 98.9832C10.7218 98.9832 11.0118 99.4305 11.0118 99.9866V100.655H11.9224C12.0362 99.372 12.3641 98.1972 12.8465 97.2147L12.2042 96.2197L11.8953 96.6921C11.6405 97.0851 11.2286 97.0851 10.9765 96.6921C10.7245 96.2991 10.7218 95.6636 10.9765 95.2748L12.5104 92.9085C12.7652 92.5155 13.1771 92.5155 13.4291 92.9085C13.6812 93.3015 13.6839 93.937 13.4291 94.3258L13.1229 94.8024L13.7679 95.7974C14.4048 95.049 15.169 94.5474 15.9983 94.3718V92.9628H15.5647C15.2042 92.9628 14.9143 92.5155 14.9143 91.9594ZM16.2151 100.321C16.2151 99.7888 16.078 99.2784 15.8341 98.902C15.5901 98.5257 15.2593 98.3142 14.9143 98.3142C14.5693 98.3142 14.2384 98.5257 13.9944 98.902C13.7505 99.2784 13.6134 99.7888 13.6134 100.321C13.6134 100.853 13.7505 101.364 13.9944 101.74C14.2384 102.116 14.5693 102.328 14.9143 102.328C15.2593 102.328 15.5901 102.116 15.8341 101.74C16.078 101.364 16.2151 100.853 16.2151 100.321ZM17.9495 104.669C18.122 104.669 18.2875 104.563 18.4095 104.375C18.5314 104.187 18.6 103.932 18.6 103.666C18.6 103.4 18.5314 103.144 18.4095 102.956C18.2875 102.768 18.122 102.662 17.9495 102.662C17.777 102.662 17.6116 102.768 17.4896 102.956C17.3677 103.144 17.2991 103.4 17.2991 103.666C17.2991 103.932 17.3677 104.187 17.4896 104.375C17.6116 104.563 17.777 104.669 17.9495 104.669Z" fill="#2B671B"/>
<path d="M28.7873 129.413C28.7873 128.857 29.0773 128.409 29.4377 128.409H31.6058C31.9662 128.409 32.2562 128.857 32.2562 129.413C32.2562 129.969 31.9662 130.416 31.6058 130.416H31.1722V131.821C32.0042 131.996 32.7657 132.502 33.4026 133.246L34.0476 132.256L33.7413 131.779C33.4866 131.386 33.4866 130.75 33.7413 130.362C33.9961 129.973 34.408 129.969 34.66 130.362L36.1939 132.728C36.4487 133.121 36.4487 133.756 36.1939 134.145C35.9392 134.534 35.5272 134.538 35.2752 134.145L34.9663 133.673L34.3213 134.668C34.8064 135.65 35.1316 136.829 35.2454 138.109H36.156V137.44C36.156 136.884 36.446 136.436 36.8064 136.436C37.1668 136.436 37.4568 136.884 37.4568 137.44V140.784C37.4568 141.34 37.1668 141.788 36.8064 141.788C36.446 141.788 36.156 141.34 36.156 140.784V140.115H35.2454C35.1316 141.399 34.8037 142.574 34.3213 143.556L34.9663 144.551L35.2725 144.079C35.5272 143.686 35.9392 143.686 36.1912 144.079C36.4433 144.472 36.446 145.107 36.1912 145.496L34.6573 147.862C34.4026 148.255 33.9906 148.255 33.7386 147.862C33.4866 147.469 33.4839 146.834 33.7386 146.445L34.0476 145.968L33.4026 144.973C32.7657 145.722 32.0015 146.224 31.1722 146.399V147.804H31.6058C31.9662 147.804 32.2562 148.251 32.2562 148.807C32.2562 149.363 31.9662 149.811 31.6058 149.811H29.4377C29.0773 149.811 28.7873 149.363 28.7873 148.807C28.7873 148.251 29.0773 147.804 29.4377 147.804H29.8713V146.399C29.0393 146.224 28.2778 145.718 27.641 144.973L26.996 145.968L27.3022 146.441C27.5569 146.834 27.5569 147.469 27.3022 147.858C27.0474 148.247 26.6355 148.251 26.3835 147.858L24.8496 145.496C24.5948 145.103 24.5948 144.468 24.8496 144.079C25.1043 143.69 25.5163 143.686 25.7683 144.079L26.0772 144.551L26.7222 143.556C26.2371 142.574 25.9092 141.399 25.7954 140.115H24.8848V140.784C24.8848 141.34 24.5948 141.788 24.2344 141.788C23.874 141.788 23.584 141.34 23.584 140.784V137.44C23.584 136.884 23.874 136.436 24.2344 136.436C24.5948 136.436 24.8848 136.884 24.8848 137.44V138.109H25.7954C25.9092 136.825 26.2371 135.65 26.7195 134.668L26.0772 133.673L25.7683 134.145C25.5136 134.538 25.1016 134.538 24.8496 134.145C24.5975 133.752 24.5948 133.117 24.8496 132.728L26.3835 130.362C26.6382 129.969 27.0502 129.969 27.3022 130.362C27.5542 130.755 27.5569 131.39 27.3022 131.779L26.996 132.256L27.641 133.251C28.2778 132.502 29.0421 132 29.8713 131.825V130.416H29.4377C29.0773 130.416 28.7873 129.969 28.7873 129.413ZM30.0881 137.774C30.0881 137.242 29.9511 136.731 29.7071 136.355C29.4632 135.979 29.1323 135.767 28.7873 135.767C28.4423 135.767 28.1114 135.979 27.8675 136.355C27.6235 136.731 27.4865 137.242 27.4865 137.774C27.4865 138.306 27.6235 138.817 27.8675 139.193C28.1114 139.569 28.4423 139.781 28.7873 139.781C29.1323 139.781 29.4632 139.569 29.7071 139.193C29.9511 138.817 30.0881 138.306 30.0881 137.774ZM31.8226 142.122C31.9951 142.122 32.1605 142.016 32.2825 141.828C32.4045 141.64 32.473 141.385 32.473 141.119C32.473 140.853 32.4045 140.597 32.2825 140.409C32.1605 140.221 31.9951 140.115 31.8226 140.115C31.6501 140.115 31.4847 140.221 31.3627 140.409C31.2407 140.597 31.1722 140.853 31.1722 141.119C31.1722 141.385 31.2407 141.64 31.3627 141.828C31.4847 142.016 31.6501 142.122 31.8226 142.122Z" fill="#2B671B"/>
</svg>
