<svg width="50" height="65" viewBox="0 0 50 65" fill="none" xmlns="http://www.w3.org/2000/svg">
<path d="M16.2501 44.6875C16.0634 44.6875 15.8766 44.7319 15.6985 44.8259C14.686 45.3604 13.6212 45.7031 12.5001 45.7031C11.379 45.7031 10.3142 45.3604 9.30088 44.8259C9.12276 44.7319 8.93682 44.6875 8.7501 44.6875C3.90168 44.6875 -0.025655 51.0961 0.000126209 58.985C0.0110637 62.3187 1.69778 65 3.75012 65H21.2501C23.3024 65 24.9891 62.3187 25.0001 58.985C25.0258 51.0961 21.0985 44.6875 16.2501 44.6875ZM12.5001 40.625C16.6423 40.625 20.0001 35.1686 20.0001 28.4375C20.0001 21.7064 16.6423 16.25 12.5001 16.25C8.35792 16.25 5.00011 21.7064 5.00011 28.4375C5.00011 35.1686 8.35792 40.625 12.5001 40.625ZM46.25 0H16.2501C14.1821 0 12.5001 2.82471 12.5001 6.29561V12.1875C14.3298 12.1875 16.0235 13.0482 17.5001 14.4473V8.125H45V44.6875H40V36.5625H30.0001V44.6875H24.0438C25.536 46.8063 26.6313 49.6044 27.1446 52.8125H46.25C48.318 52.8125 50 49.9878 50 46.5169V6.29561C50 2.82471 48.318 0 46.25 0Z" fill="#1E40AF"/>
</svg>
